<svg xmlns="http://www.w3.org/2000/svg" xmlns:xlink="http://www.w3.org/1999/xlink" preserveAspectRatio="xMidYMid" width="7" height="13" viewBox="0 0 7 13">
  <defs>
    <style>

      .cls-2 {
        fill: #ffffff;
      }
    </style>
  </defs>
  <path d="M4.777,2.448 C4.777,2.448 6.427,2.448 6.427,2.448 C6.427,2.448 6.427,0.011 6.427,0.011 C6.427,0.011 4.488,0.011 4.488,0.011 C4.488,0.011 4.488,0.021 4.488,0.021 C2.139,0.103 1.657,1.424 1.614,2.813 C1.614,2.813 1.610,2.813 1.610,2.813 C1.610,2.813 1.610,4.029 1.610,4.029 C1.610,4.029 0.010,4.029 0.010,4.029 C0.010,4.029 0.010,6.415 0.010,6.415 C0.010,6.415 1.610,6.415 1.610,6.415 C1.610,6.415 1.610,12.812 1.610,12.812 C1.610,12.812 4.021,12.812 4.021,12.812 C4.021,12.812 4.021,6.415 4.021,6.415 C4.021,6.415 5.996,6.415 5.996,6.415 C5.996,6.415 6.377,4.029 6.377,4.029 C6.377,4.029 4.021,4.029 4.021,4.029 C4.021,4.029 4.021,3.293 4.021,3.293 C4.021,2.825 4.333,2.448 4.777,2.448 Z" id="path-1" class="cls-2" fill-rule="evenodd"/>
</svg>
