<svg xmlns="http://www.w3.org/2000/svg" xmlns:xlink="http://www.w3.org/1999/xlink" preserveAspectRatio="xMidYMid" width="15" height="15" viewBox="0 0 15 15">
  <defs>
    <style>

      .cls-2 {
        fill: #ffffff;
      }
    </style>
  </defs>
  <path d="M11.606,-0.015 C11.606,-0.015 2.769,-0.015 2.769,-0.015 C1.234,-0.015 -0.015,1.233 -0.015,2.768 C-0.015,2.768 -0.015,5.709 -0.015,5.709 C-0.015,5.709 -0.015,11.605 -0.015,11.605 C-0.015,13.140 1.234,14.388 2.769,14.388 C2.769,14.388 11.606,14.388 11.606,14.388 C13.141,14.388 14.389,13.140 14.389,11.605 C14.389,11.605 14.389,5.709 14.389,5.709 C14.389,5.709 14.389,2.768 14.389,2.768 C14.389,1.233 13.141,-0.015 11.606,-0.015 ZM12.482,1.595 C12.482,1.595 12.797,1.594 12.797,1.594 C12.797,1.594 12.797,1.904 12.797,1.904 C12.797,1.904 12.797,3.985 12.797,3.985 C12.797,3.985 10.389,3.993 10.389,3.993 C10.389,3.993 10.381,1.602 10.381,1.602 C10.381,1.602 12.482,1.595 12.482,1.595 ZM7.187,4.777 C9.185,4.777 9.597,6.653 9.597,7.188 C9.597,8.515 8.516,9.596 7.187,9.596 C5.859,9.596 4.778,8.515 4.778,7.188 C4.778,6.653 5.190,4.777 7.187,4.777 ZM12.811,11.430 C12.811,12.192 12.192,12.810 11.431,12.810 C11.431,12.810 2.919,12.810 2.919,12.810 C2.158,12.810 1.539,12.192 1.539,11.430 C1.539,11.430 1.539,5.584 1.539,5.584 C1.539,5.584 3.539,5.584 3.539,5.584 C3.353,6.040 3.249,6.664 3.249,7.188 C3.249,9.358 5.016,11.126 7.187,11.126 C9.359,11.126 11.126,9.358 11.126,7.188 C11.126,6.664 11.021,6.040 10.835,5.584 C10.835,5.584 12.811,5.584 12.811,5.584 C12.811,5.584 12.811,11.430 12.811,11.430 Z" id="path-1" class="cls-2" fill-rule="evenodd"/>
</svg>
