<svg xmlns="http://www.w3.org/2000/svg" xmlns:xlink="http://www.w3.org/1999/xlink" preserveAspectRatio="xMidYMid" width="13" height="11" viewBox="0 0 13 11">
  <defs>
    <style>

      .cls-2 {
        fill: #ffffff;
      }
    </style>
  </defs>
  <path d="M9.602,11.193 C9.602,11.193 9.602,6.837 9.602,6.837 C9.602,5.943 9.344,5.049 8.292,5.049 C7.241,5.049 6.401,5.943 6.401,6.859 C6.401,6.859 6.401,11.193 6.401,11.193 C6.401,11.193 3.996,11.193 3.996,11.193 C3.996,11.193 3.996,3.179 3.996,3.179 C3.996,3.179 6.401,3.179 6.401,3.179 C6.401,3.179 6.401,4.290 6.401,4.290 C7.140,3.352 8.181,2.927 9.344,2.927 C10.508,2.927 11.999,3.508 11.999,6.659 C11.999,6.659 11.999,11.193 11.999,11.193 C11.999,11.193 9.602,11.193 9.602,11.193 ZM0.006,3.203 C0.006,3.203 2.403,3.203 2.403,3.203 C2.403,3.203 2.403,11.193 2.403,11.193 C2.403,11.193 0.006,11.193 0.006,11.193 C0.006,11.193 0.006,3.203 0.006,3.203 ZM1.194,2.406 C0.531,2.406 -0.006,1.868 -0.006,1.206 C-0.006,0.543 0.531,0.006 1.194,0.006 C1.856,0.006 2.394,0.543 2.394,1.206 C2.394,1.868 1.856,2.406 1.194,2.406 Z" id="path-1" class="cls-2" fill-rule="evenodd"/>
</svg>
