<svg xmlns="http://www.w3.org/2000/svg" xmlns:xlink="http://www.w3.org/1999/xlink" preserveAspectRatio="xMidYMid" width="15" height="13" viewBox="0 0 15 13">
  <defs>
    <style>

      .cls-2 {
        fill: #ffffff;
      }
    </style>
  </defs>
  <path d="M15.190,1.416 C14.630,1.657 14.029,1.820 13.398,1.893 C14.042,1.519 14.537,0.926 14.769,0.218 C14.167,0.565 13.499,0.817 12.789,0.953 C12.220,0.365 11.409,-0.003 10.512,-0.003 C8.789,-0.003 7.393,1.352 7.393,3.025 C7.393,3.262 7.420,3.493 7.473,3.714 C4.881,3.588 2.582,2.383 1.044,0.551 C0.776,0.999 0.622,1.519 0.622,2.073 C0.622,3.123 1.172,4.051 2.009,4.593 C1.498,4.577 1.017,4.441 0.597,4.214 C0.596,4.228 0.596,4.239 0.596,4.253 C0.596,5.719 1.671,6.943 3.099,7.221 C2.837,7.290 2.561,7.327 2.277,7.327 C2.075,7.327 1.880,7.308 1.690,7.273 C2.087,8.476 3.239,9.351 4.603,9.375 C3.536,10.187 2.191,10.672 0.729,10.672 C0.478,10.672 0.230,10.657 -0.015,10.629 C1.366,11.488 3.006,11.990 4.767,11.990 C10.505,11.990 13.642,7.376 13.642,3.376 C13.642,3.245 13.639,3.113 13.633,2.984 C14.243,2.557 14.772,2.024 15.190,1.416 Z" id="path-1" class="cls-2" fill-rule="evenodd"/>
</svg>
