<svg xmlns="http://www.w3.org/2000/svg" xmlns:xlink="http://www.w3.org/1999/xlink" preserveAspectRatio="xMidYMid" width="14" height="13" viewBox="0 0 14 13">
  <defs>
    <style>

      .cls-2 {
        fill: #ffffff;
      }
    </style>
  </defs>
  <path d="M-0.013,3.193 C1.184,2.237 2.886,0.140 4.213,0.140 C5.539,0.140 5.864,1.705 6.045,3.126 C6.228,4.546 6.749,7.652 7.450,7.652 C8.152,7.652 9.752,4.904 9.660,3.842 C9.570,2.781 8.413,2.940 7.775,3.245 C8.360,1.121 9.713,-0.007 11.442,-0.007 C13.171,-0.007 13.587,1.215 13.587,2.714 C13.587,4.998 8.959,11.992 6.163,11.992 C4.433,11.992 4.005,9.444 3.655,8.183 C3.303,6.922 2.614,3.617 1.808,3.405 C1.495,3.352 0.612,4.054 0.612,4.054 C0.612,4.054 -0.013,3.193 -0.013,3.193 Z" id="path-1" class="cls-2" fill-rule="evenodd"/>
</svg>
